<mxfile host="65bd71144e">
    <diagram id="5HG1jfW0MSwjm0IpRdiQ" name="PC">
        <mxGraphModel dx="906" dy="544" grid="1" gridSize="10" guides="1" tooltips="1" connect="1" arrows="1" fold="1" page="1" pageScale="1" pageWidth="827" pageHeight="1169" math="0" shadow="0">
            <root>
                <mxCell id="0"/>
                <mxCell id="1" parent="0"/>
                <mxCell id="2" value="" style="rounded=0;whiteSpace=wrap;html=1;fillColor=#E6E6E6;fontColor=#000000;strokeColor=#666666;" parent="1" vertex="1">
                    <mxGeometry x="40" y="40" width="760" height="480" as="geometry"/>
                </mxCell>
                <mxCell id="3" value="" style="rounded=0;whiteSpace=wrap;html=1;strokeColor=none;strokeWidth=2;fillColor=#f5f5f5;fontColor=#000000;" parent="1" vertex="1">
                    <mxGeometry x="42" y="140" width="110" height="370" as="geometry"/>
                </mxCell>
                <mxCell id="4" value="Home" style="text;html=1;align=center;verticalAlign=middle;whiteSpace=wrap;rounded=0;strokeWidth=2;fontColor=#000000;" parent="1" vertex="1">
                    <mxGeometry x="65" y="210" width="60" height="30" as="geometry"/>
                </mxCell>
                <mxCell id="5" value="" style="group;fontColor=#000000;" parent="1" vertex="1" connectable="0">
                    <mxGeometry x="40" y="40" width="760" height="80" as="geometry"/>
                </mxCell>
                <mxCell id="6" value="" style="rounded=0;whiteSpace=wrap;html=1;fillColor=#f5f5f5;fontColor=#000000;strokeColor=none;strokeWidth=0.5;" parent="5" vertex="1">
                    <mxGeometry width="760" height="30" as="geometry"/>
                </mxCell>
                <mxCell id="7" value="" style="ellipse;whiteSpace=wrap;html=1;aspect=fixed;strokeColor=none;fillColor=#BA0C00;gradientColor=none;fontColor=#000000;" parent="5" vertex="1">
                    <mxGeometry x="7" y="7" width="15" height="15" as="geometry"/>
                </mxCell>
                <mxCell id="8" value="" style="ellipse;whiteSpace=wrap;html=1;aspect=fixed;strokeColor=none;fillColor=#D4E302;gradientColor=none;fontColor=#000000;" parent="5" vertex="1">
                    <mxGeometry x="27" y="7" width="15" height="15" as="geometry"/>
                </mxCell>
                <mxCell id="9" value="" style="ellipse;whiteSpace=wrap;html=1;aspect=fixed;strokeColor=none;fillColor=#09D940;gradientColor=none;fontColor=#000000;" parent="5" vertex="1">
                    <mxGeometry x="48" y="7.5" width="15" height="15" as="geometry"/>
                </mxCell>
                <mxCell id="10" value="" style="rounded=1;whiteSpace=wrap;html=1;fillColor=#dae8fc;strokeColor=#F0F0F0;strokeWidth=0.5;fontColor=#000000;" parent="5" vertex="1">
                    <mxGeometry x="232" y="5" width="130" height="25" as="geometry"/>
                </mxCell>
                <mxCell id="11" value="" style="rounded=1;whiteSpace=wrap;html=1;fillColor=#dae8fc;strokeColor=#6c8ebf;strokeWidth=0.5;fontColor=#000000;" parent="5" vertex="1">
                    <mxGeometry x="102" y="5.5" width="130" height="25" as="geometry"/>
                </mxCell>
                <mxCell id="12" value="" style="rounded=1;whiteSpace=wrap;html=1;fillColor=#dae8fc;strokeColor=#6c8ebf;strokeWidth=0.5;fontColor=#000000;" parent="5" vertex="1">
                    <mxGeometry x="362" y="5" width="130" height="25" as="geometry"/>
                </mxCell>
                <mxCell id="13" value="" style="verticalLabelPosition=bottom;verticalAlign=top;html=1;shape=mxgraph.basic.x;strokeWidth=0.5;fillColor=#808080;strokeColor=#666666;fontColor=#000000;" parent="5" vertex="1">
                    <mxGeometry x="350" y="14" width="8" height="7" as="geometry"/>
                </mxCell>
                <mxCell id="14" value="" style="rounded=0;whiteSpace=wrap;html=1;fillColor=#f5f5f5;fontColor=#000000;strokeColor=none;strokeWidth=0.5;" parent="5" vertex="1">
                    <mxGeometry y="30.5" width="760" height="49.5" as="geometry"/>
                </mxCell>
                <mxCell id="15" value="" style="rounded=1;whiteSpace=wrap;html=1;strokeColor=#6c8ebf;strokeWidth=0.5;fillColor=none;fontColor=#000000;" parent="5" vertex="1">
                    <mxGeometry x="102" y="40.629999999999995" width="608" height="27.37" as="geometry"/>
                </mxCell>
                <mxCell id="16" value="" style="verticalLabelPosition=bottom;verticalAlign=top;html=1;shape=mxgraph.basic.partConcEllipse;startAngle=0.25;endAngle=0.1;arcWidth=0.5;rounded=1;strokeColor=#666666;strokeWidth=0.5;fillColor=none;fontColor=#000000;" parent="5" vertex="1">
                    <mxGeometry x="70" y="44.31999999999999" width="20" height="20" as="geometry"/>
                </mxCell>
                <mxCell id="17" value="" style="endArrow=open;html=1;strokeColor=#CCCCCC;strokeWidth=3;startSize=0;endFill=0;fontColor=#000000;" parent="5" edge="1">
                    <mxGeometry width="50" height="50" relative="1" as="geometry">
                        <mxPoint x="42" y="53.97000000000003" as="sourcePoint"/>
                        <mxPoint x="62" y="53.97" as="targetPoint"/>
                    </mxGeometry>
                </mxCell>
                <mxCell id="18" value="" style="endArrow=open;html=1;strokeColor=#CCCCCC;strokeWidth=3;startSize=0;endFill=0;fontColor=#000000;" parent="1" edge="1">
                    <mxGeometry width="50" height="50" relative="1" as="geometry">
                        <mxPoint x="72.99999999999989" y="93.97000000000003" as="sourcePoint"/>
                        <mxPoint x="52.999999999999886" y="93.97000000000003" as="targetPoint"/>
                    </mxGeometry>
                </mxCell>
                <mxCell id="19" value="Form" style="text;html=1;align=center;verticalAlign=middle;whiteSpace=wrap;rounded=0;strokeWidth=2;fontColor=#000000;" parent="1" vertex="1">
                    <mxGeometry x="65" y="245" width="60" height="30" as="geometry"/>
                </mxCell>
                <mxCell id="20" value="Setting" style="text;html=1;align=center;verticalAlign=middle;whiteSpace=wrap;rounded=0;strokeWidth=2;fontColor=#000000;" parent="1" vertex="1">
                    <mxGeometry x="65" y="410" width="60" height="30" as="geometry"/>
                </mxCell>
                <mxCell id="21" value="Logout" style="text;html=1;align=center;verticalAlign=middle;whiteSpace=wrap;rounded=0;strokeWidth=2;fontColor=#000000;" parent="1" vertex="1">
                    <mxGeometry x="65" y="450" width="60" height="30" as="geometry"/>
                </mxCell>
                <mxCell id="22" value="" style="rounded=0;whiteSpace=wrap;html=1;strokeColor=none;strokeWidth=2;fillColor=#f5f5f5;fontColor=#000000;" parent="1" vertex="1">
                    <mxGeometry x="150" y="140" width="650" height="40" as="geometry"/>
                </mxCell>
                <mxCell id="23" value="" style="rounded=0;whiteSpace=wrap;html=1;strokeColor=#666666;strokeWidth=0.5;fillColor=#FFFFFF;fontColor=#000000;" parent="1" vertex="1">
                    <mxGeometry x="170" y="200" width="600" height="300" as="geometry"/>
                </mxCell>
                <mxCell id="24" value="Recent Orders&amp;nbsp;" style="text;html=1;align=center;verticalAlign=middle;whiteSpace=wrap;rounded=0;strokeWidth=0.5;strokeColor=none;fontColor=#000000;fontStyle=1" parent="1" vertex="1">
                    <mxGeometry x="200" y="220" width="100" height="30" as="geometry"/>
                </mxCell>
                <mxCell id="25" value="List" style="text;html=1;align=center;verticalAlign=middle;whiteSpace=wrap;rounded=0;strokeWidth=2;fontColor=#000000;" parent="1" vertex="1">
                    <mxGeometry x="65" y="277" width="60" height="30" as="geometry"/>
                </mxCell>
                <mxCell id="26" value="" style="shape=actor;whiteSpace=wrap;html=1;rounded=1;strokeColor=#0e8088;strokeWidth=0.5;fontSize=10;fillColor=#b0e3e6;fontColor=#000000;" parent="1" vertex="1">
                    <mxGeometry x="755" y="145" width="25" height="30" as="geometry"/>
                </mxCell>
                <mxCell id="27" value="" style="childLayout=tableLayout;recursiveResize=0;shadow=0;fillColor=none;strokeColor=#808080;fontColor=#000000;" parent="1" vertex="1">
                    <mxGeometry x="200" y="260" width="550" height="202" as="geometry"/>
                </mxCell>
                <mxCell id="28" value="" style="shape=tableRow;horizontal=0;startSize=0;swimlaneHead=0;swimlaneBody=0;top=0;left=0;bottom=0;right=0;dropTarget=0;collapsible=0;recursiveResize=0;expand=0;fontStyle=0;fillColor=none;strokeColor=inherit;fontColor=#000000;" parent="27" vertex="1">
                    <mxGeometry width="550" height="35" as="geometry"/>
                </mxCell>
                <mxCell id="29" value="User" style="connectable=0;recursiveResize=0;strokeColor=inherit;fillColor=none;align=center;whiteSpace=wrap;html=1;fontColor=#000000;" parent="28" vertex="1">
                    <mxGeometry width="110" height="35" as="geometry">
                        <mxRectangle width="110" height="35" as="alternateBounds"/>
                    </mxGeometry>
                </mxCell>
                <mxCell id="30" value="Date" style="connectable=0;recursiveResize=0;strokeColor=inherit;fillColor=none;align=center;whiteSpace=wrap;html=1;fontColor=#000000;" parent="28" vertex="1">
                    <mxGeometry x="110" width="111" height="35" as="geometry">
                        <mxRectangle width="111" height="35" as="alternateBounds"/>
                    </mxGeometry>
                </mxCell>
                <mxCell id="31" value="Reason" style="connectable=0;recursiveResize=0;strokeColor=inherit;fillColor=none;align=center;whiteSpace=wrap;html=1;fontColor=#000000;" parent="28" vertex="1">
                    <mxGeometry x="221" width="110" height="35" as="geometry">
                        <mxRectangle width="110" height="35" as="alternateBounds"/>
                    </mxGeometry>
                </mxCell>
                <mxCell id="32" style="connectable=0;recursiveResize=0;strokeColor=inherit;fillColor=none;align=center;whiteSpace=wrap;html=1;fontColor=#000000;" parent="28" vertex="1">
                    <mxGeometry x="331" width="109" height="35" as="geometry">
                        <mxRectangle width="109" height="35" as="alternateBounds"/>
                    </mxGeometry>
                </mxCell>
                <mxCell id="33" value="Status" style="connectable=0;recursiveResize=0;strokeColor=inherit;fillColor=none;align=center;whiteSpace=wrap;html=1;fontColor=#000000;" parent="28" vertex="1">
                    <mxGeometry x="440" width="110" height="35" as="geometry">
                        <mxRectangle width="110" height="35" as="alternateBounds"/>
                    </mxGeometry>
                </mxCell>
                <mxCell id="34" style="shape=tableRow;horizontal=0;startSize=0;swimlaneHead=0;swimlaneBody=0;top=0;left=0;bottom=0;right=0;dropTarget=0;collapsible=0;recursiveResize=0;expand=0;fontStyle=0;fillColor=none;strokeColor=inherit;fontColor=#000000;" parent="27" vertex="1">
                    <mxGeometry y="35" width="550" height="35" as="geometry"/>
                </mxCell>
                <mxCell id="35" value="&lt;span style=&quot;font-size: 10px;&quot;&gt;John Doe&lt;/span&gt;" style="connectable=0;recursiveResize=0;strokeColor=inherit;fillColor=none;align=center;whiteSpace=wrap;html=1;fontColor=#000000;" parent="34" vertex="1">
                    <mxGeometry width="110" height="35" as="geometry">
                        <mxRectangle width="110" height="35" as="alternateBounds"/>
                    </mxGeometry>
                </mxCell>
                <mxCell id="36" value="2024-03-01" style="connectable=0;recursiveResize=0;strokeColor=inherit;fillColor=none;align=center;whiteSpace=wrap;html=1;fontColor=#000000;" parent="34" vertex="1">
                    <mxGeometry x="110" width="111" height="35" as="geometry">
                        <mxRectangle width="111" height="35" as="alternateBounds"/>
                    </mxGeometry>
                </mxCell>
                <mxCell id="37" value="Value 5" style="connectable=0;recursiveResize=0;strokeColor=inherit;fillColor=none;align=center;whiteSpace=wrap;html=1;fontColor=#000000;" parent="34" vertex="1">
                    <mxGeometry x="221" width="110" height="35" as="geometry">
                        <mxRectangle width="110" height="35" as="alternateBounds"/>
                    </mxGeometry>
                </mxCell>
                <mxCell id="38" style="connectable=0;recursiveResize=0;strokeColor=inherit;fillColor=none;align=center;whiteSpace=wrap;html=1;fontColor=#000000;" parent="34" vertex="1">
                    <mxGeometry x="331" width="109" height="35" as="geometry">
                        <mxRectangle width="109" height="35" as="alternateBounds"/>
                    </mxGeometry>
                </mxCell>
                <mxCell id="39" style="connectable=0;recursiveResize=0;strokeColor=inherit;fillColor=none;align=center;whiteSpace=wrap;html=1;fontColor=#000000;" parent="34" vertex="1">
                    <mxGeometry x="440" width="110" height="35" as="geometry">
                        <mxRectangle width="110" height="35" as="alternateBounds"/>
                    </mxGeometry>
                </mxCell>
                <mxCell id="40" style="shape=tableRow;horizontal=0;startSize=0;swimlaneHead=0;swimlaneBody=0;top=0;left=0;bottom=0;right=0;dropTarget=0;collapsible=0;recursiveResize=0;expand=0;fontStyle=0;fillColor=none;strokeColor=inherit;fontColor=#000000;" parent="27" vertex="1">
                    <mxGeometry y="70" width="550" height="33" as="geometry"/>
                </mxCell>
                <mxCell id="41" value="&lt;span style=&quot;font-size: 10px;&quot;&gt;Mike Dow&lt;/span&gt;" style="connectable=0;recursiveResize=0;strokeColor=inherit;fillColor=none;align=center;whiteSpace=wrap;html=1;fontColor=#000000;" parent="40" vertex="1">
                    <mxGeometry width="110" height="33" as="geometry">
                        <mxRectangle width="110" height="33" as="alternateBounds"/>
                    </mxGeometry>
                </mxCell>
                <mxCell id="42" value="2024-03-02" style="connectable=0;recursiveResize=0;strokeColor=inherit;fillColor=none;align=center;whiteSpace=wrap;html=1;fontColor=#000000;" parent="40" vertex="1">
                    <mxGeometry x="110" width="111" height="33" as="geometry">
                        <mxRectangle width="111" height="33" as="alternateBounds"/>
                    </mxGeometry>
                </mxCell>
                <mxCell id="43" style="connectable=0;recursiveResize=0;strokeColor=inherit;fillColor=none;align=center;whiteSpace=wrap;html=1;fontColor=#000000;" parent="40" vertex="1">
                    <mxGeometry x="221" width="110" height="33" as="geometry">
                        <mxRectangle width="110" height="33" as="alternateBounds"/>
                    </mxGeometry>
                </mxCell>
                <mxCell id="44" style="connectable=0;recursiveResize=0;strokeColor=inherit;fillColor=none;align=center;whiteSpace=wrap;html=1;fontColor=#000000;" parent="40" vertex="1">
                    <mxGeometry x="331" width="109" height="33" as="geometry">
                        <mxRectangle width="109" height="33" as="alternateBounds"/>
                    </mxGeometry>
                </mxCell>
                <mxCell id="45" style="connectable=0;recursiveResize=0;strokeColor=inherit;fillColor=none;align=center;whiteSpace=wrap;html=1;fontColor=#000000;" parent="40" vertex="1">
                    <mxGeometry x="440" width="110" height="33" as="geometry">
                        <mxRectangle width="110" height="33" as="alternateBounds"/>
                    </mxGeometry>
                </mxCell>
                <mxCell id="46" style="shape=tableRow;horizontal=0;startSize=0;swimlaneHead=0;swimlaneBody=0;top=0;left=0;bottom=0;right=0;dropTarget=0;collapsible=0;recursiveResize=0;expand=0;fontStyle=0;fillColor=none;strokeColor=inherit;fontColor=#000000;" parent="27" vertex="1">
                    <mxGeometry y="103" width="550" height="33" as="geometry"/>
                </mxCell>
                <mxCell id="47" value="&lt;span style=&quot;font-size: 10px;&quot;&gt;Dan Hues&lt;/span&gt;" style="connectable=0;recursiveResize=0;strokeColor=inherit;fillColor=none;align=center;whiteSpace=wrap;html=1;fontColor=#000000;" parent="46" vertex="1">
                    <mxGeometry width="110" height="33" as="geometry">
                        <mxRectangle width="110" height="33" as="alternateBounds"/>
                    </mxGeometry>
                </mxCell>
                <mxCell id="48" value="2024-03-03" style="connectable=0;recursiveResize=0;strokeColor=inherit;fillColor=none;align=center;whiteSpace=wrap;html=1;fontColor=#000000;" parent="46" vertex="1">
                    <mxGeometry x="110" width="111" height="33" as="geometry">
                        <mxRectangle width="111" height="33" as="alternateBounds"/>
                    </mxGeometry>
                </mxCell>
                <mxCell id="49" style="connectable=0;recursiveResize=0;strokeColor=inherit;fillColor=none;align=center;whiteSpace=wrap;html=1;fontColor=#000000;" parent="46" vertex="1">
                    <mxGeometry x="221" width="110" height="33" as="geometry">
                        <mxRectangle width="110" height="33" as="alternateBounds"/>
                    </mxGeometry>
                </mxCell>
                <mxCell id="50" style="connectable=0;recursiveResize=0;strokeColor=inherit;fillColor=none;align=center;whiteSpace=wrap;html=1;fontColor=#000000;" parent="46" vertex="1">
                    <mxGeometry x="331" width="109" height="33" as="geometry">
                        <mxRectangle width="109" height="33" as="alternateBounds"/>
                    </mxGeometry>
                </mxCell>
                <mxCell id="51" style="connectable=0;recursiveResize=0;strokeColor=inherit;fillColor=none;align=center;whiteSpace=wrap;html=1;fontColor=#000000;" parent="46" vertex="1">
                    <mxGeometry x="440" width="110" height="33" as="geometry">
                        <mxRectangle width="110" height="33" as="alternateBounds"/>
                    </mxGeometry>
                </mxCell>
                <mxCell id="52" style="shape=tableRow;horizontal=0;startSize=0;swimlaneHead=0;swimlaneBody=0;top=0;left=0;bottom=0;right=0;dropTarget=0;collapsible=0;recursiveResize=0;expand=0;fontStyle=0;fillColor=none;strokeColor=inherit;fontColor=#000000;" parent="27" vertex="1">
                    <mxGeometry y="136" width="550" height="33" as="geometry"/>
                </mxCell>
                <mxCell id="53" value="&lt;span style=&quot;font-size: 10px;&quot;&gt;Qee Lee&lt;/span&gt;" style="connectable=0;recursiveResize=0;strokeColor=inherit;fillColor=none;align=center;whiteSpace=wrap;html=1;fontColor=#000000;" parent="52" vertex="1">
                    <mxGeometry width="110" height="33" as="geometry">
                        <mxRectangle width="110" height="33" as="alternateBounds"/>
                    </mxGeometry>
                </mxCell>
                <mxCell id="54" value="2024-03-05" style="connectable=0;recursiveResize=0;strokeColor=inherit;fillColor=none;align=center;whiteSpace=wrap;html=1;fontColor=#000000;" parent="52" vertex="1">
                    <mxGeometry x="110" width="111" height="33" as="geometry">
                        <mxRectangle width="111" height="33" as="alternateBounds"/>
                    </mxGeometry>
                </mxCell>
                <mxCell id="55" style="connectable=0;recursiveResize=0;strokeColor=inherit;fillColor=none;align=center;whiteSpace=wrap;html=1;fontColor=#000000;" parent="52" vertex="1">
                    <mxGeometry x="221" width="110" height="33" as="geometry">
                        <mxRectangle width="110" height="33" as="alternateBounds"/>
                    </mxGeometry>
                </mxCell>
                <mxCell id="56" style="connectable=0;recursiveResize=0;strokeColor=inherit;fillColor=none;align=center;whiteSpace=wrap;html=1;fontColor=#000000;" parent="52" vertex="1">
                    <mxGeometry x="331" width="109" height="33" as="geometry">
                        <mxRectangle width="109" height="33" as="alternateBounds"/>
                    </mxGeometry>
                </mxCell>
                <mxCell id="57" style="connectable=0;recursiveResize=0;strokeColor=inherit;fillColor=none;align=center;whiteSpace=wrap;html=1;fontColor=#000000;" parent="52" vertex="1">
                    <mxGeometry x="440" width="110" height="33" as="geometry">
                        <mxRectangle width="110" height="33" as="alternateBounds"/>
                    </mxGeometry>
                </mxCell>
                <mxCell id="58" style="shape=tableRow;horizontal=0;startSize=0;swimlaneHead=0;swimlaneBody=0;top=0;left=0;bottom=0;right=0;dropTarget=0;collapsible=0;recursiveResize=0;expand=0;fontStyle=0;fillColor=none;strokeColor=inherit;fontColor=#000000;" parent="27" vertex="1">
                    <mxGeometry y="169" width="550" height="33" as="geometry"/>
                </mxCell>
                <mxCell id="59" value="Jack Lon" style="connectable=0;recursiveResize=0;strokeColor=inherit;fillColor=none;align=center;whiteSpace=wrap;html=1;fontColor=#000000;" parent="58" vertex="1">
                    <mxGeometry width="110" height="33" as="geometry">
                        <mxRectangle width="110" height="33" as="alternateBounds"/>
                    </mxGeometry>
                </mxCell>
                <mxCell id="60" value="2024-04-01" style="connectable=0;recursiveResize=0;strokeColor=inherit;fillColor=none;align=center;whiteSpace=wrap;html=1;fontColor=#000000;" parent="58" vertex="1">
                    <mxGeometry x="110" width="111" height="33" as="geometry">
                        <mxRectangle width="111" height="33" as="alternateBounds"/>
                    </mxGeometry>
                </mxCell>
                <mxCell id="61" style="connectable=0;recursiveResize=0;strokeColor=inherit;fillColor=none;align=center;whiteSpace=wrap;html=1;fontColor=#000000;" parent="58" vertex="1">
                    <mxGeometry x="221" width="110" height="33" as="geometry">
                        <mxRectangle width="110" height="33" as="alternateBounds"/>
                    </mxGeometry>
                </mxCell>
                <mxCell id="62" style="connectable=0;recursiveResize=0;strokeColor=inherit;fillColor=none;align=center;whiteSpace=wrap;html=1;fontColor=#000000;" parent="58" vertex="1">
                    <mxGeometry x="331" width="109" height="33" as="geometry">
                        <mxRectangle width="109" height="33" as="alternateBounds"/>
                    </mxGeometry>
                </mxCell>
                <mxCell id="63" style="connectable=0;recursiveResize=0;strokeColor=inherit;fillColor=none;align=center;whiteSpace=wrap;html=1;fontColor=#000000;" parent="58" vertex="1">
                    <mxGeometry x="440" width="110" height="33" as="geometry">
                        <mxRectangle width="110" height="33" as="alternateBounds"/>
                    </mxGeometry>
                </mxCell>
                <mxCell id="64" value="&lt;font style=&quot;font-size: 10px;&quot;&gt;Complete&lt;/font&gt;" style="shape=ext;double=1;rounded=1;whiteSpace=wrap;html=1;strokeColor=#001DBC;fontColor=#ffffff;fillColor=#0050ef;" parent="1" vertex="1">
                    <mxGeometry x="651" y="303" width="90" height="20" as="geometry"/>
                </mxCell>
                <mxCell id="65" value="&lt;span style=&quot;font-size: 10px;&quot;&gt;Process&lt;/span&gt;" style="shape=ext;double=1;rounded=1;whiteSpace=wrap;html=1;strokeColor=#BD7000;fontColor=#000000;fillColor=#f0a30a;" parent="1" vertex="1">
                    <mxGeometry x="651" y="338" width="90" height="20" as="geometry"/>
                </mxCell>
                <mxCell id="66" value="&lt;span style=&quot;font-size: 10px;&quot;&gt;Pending&lt;/span&gt;" style="shape=ext;double=1;rounded=1;whiteSpace=wrap;html=1;strokeColor=#B20000;fontColor=#ffffff;fillColor=#e51400;" parent="1" vertex="1">
                    <mxGeometry x="651" y="370" width="90" height="20" as="geometry"/>
                </mxCell>
                <mxCell id="67" value="&lt;font style=&quot;font-size: 10px;&quot;&gt;Complete&lt;/font&gt;" style="shape=ext;double=1;rounded=1;whiteSpace=wrap;html=1;strokeColor=#001DBC;fontColor=#ffffff;fillColor=#0050ef;" parent="1" vertex="1">
                    <mxGeometry x="651" y="403" width="90" height="20" as="geometry"/>
                </mxCell>
                <mxCell id="68" value="&lt;span style=&quot;font-size: 10px;&quot;&gt;Pending&lt;/span&gt;" style="shape=ext;double=1;rounded=1;whiteSpace=wrap;html=1;strokeColor=#B20000;fontColor=#ffffff;fillColor=#e51400;" parent="1" vertex="1">
                    <mxGeometry x="651" y="435" width="90" height="20" as="geometry"/>
                </mxCell>
                <mxCell id="69" value="" style="rounded=0;whiteSpace=wrap;html=1;fillColor=#f5f5f5;strokeColor=#666666;fontColor=#333333;opacity=80;" vertex="1" parent="1">
                    <mxGeometry x="40" y="40" width="760" height="480" as="geometry"/>
                </mxCell>
                <mxCell id="71" value="" style="rounded=0;whiteSpace=wrap;html=1;opacity=80;fillColor=#E6E6E6;fontColor=#333333;strokeColor=#808080;" vertex="1" parent="1">
                    <mxGeometry x="180" y="80" width="480" height="410" as="geometry"/>
                </mxCell>
            </root>
        </mxGraphModel>
    </diagram>
</mxfile>